<svg enable-background="new 0 0 92.6 81.7" viewBox="0 0 92.6 81.7" xmlns="http://www.w3.org/2000/svg" xmlns:xlink="http://www.w3.org/1999/xlink"><clipPath id="a"><path d="m0 0h92.6v81.7h-92.6z"/></clipPath><clipPath id="b"><path d="m0 0h92.6v81.7h-92.6z"/></clipPath><clipPath id="c"><path d="m2.5 58.7h86.8v23h-86.8z"/></clipPath><g clip-path="url(#a)"><g clip-path="url(#b)"><g clip-path="url(#c)" opacity=".14" transform="translate(2.486 58.681)"><path d="m86.7 9.1c.7 6.4-21.2 18.3-37.5 12.3-2.4-.9-3.2-1.7-5.9-3.2-20.6-11.8-43.3-6.7-43.3-9.1 0-5 19.4-9.1 43.4-9.1 14.6 0 42.5 2.2 43.3 9.1" fill="#738baa"/></g><path d="m81.4 53.3c0-1.9 0-3.7 0-5.6 0-1.3 0-1.3-1.2-.9-7 2.3-13.9 4.5-20.9 6.8-2.3.7-3.1.4-4.4-1.5-2.1-3.1-4.2-6.3-6.4-9.4-.4-.6-.8-1.2-.1-1.7.8-.5 1.2.1 1.6.7 2.2 3.2 4.3 6.4 6.5 9.6.4.8 1.3 1.1 2.1.7 10.3-3.4 20.7-6.7 31-10.1 1.5-.5 1.6-.8.8-2.1-2.7-4-5.4-7.9-8-11.9-.3-.5-.8-.9-1.4-1.1-11.3-3.7-22.6-7.3-33.9-11-.5-.1-1-.1-1.4.1l-28.5 9.3c-.1 0-.3.1-.4.1-.7.2-1.4.5-1.7-.4s.5-1.1 1.2-1.3c9.2-3 18.4-6 27.6-9 1-.3 1-.6.4-1.4-2.3-3.3-4.5-6.6-6.7-9.8-1-1.5-1-1.5-2.7-1-10.3 3.1-20.4 6.4-30.6 9.7-1.7.5-1.8.9-.8 2.4 2.3 3.4 4.6 6.8 6.8 10.2.3.5.8 1 1.4 1.1 11 3.6 22 7.1 33.1 10.7 1 .3 2.1.3 3.1-.1 9.4-3.1 18.8-6.1 28.1-9.1.7-.2 1.5-.6 1.8.3.3 1-.5 1.1-1.2 1.4-9.6 3.1-19.2 6.2-28.8 9.4-.7.2-1.3.7-1.7 1.3-2.8 4.2-5.7 8.4-8.6 12.6-1.1 1.7-2.1 2-4 1.4-10.4-3.4-20.9-6.8-31.3-10.2-2.3-.8-2.9-2.5-1.6-4.5 2.1-3.1 4.2-6.3 6.3-9.4.4-.5.8-1.1 1.5-.6s.4 1.1 0 1.6c-2.1 3.1-4.2 6.1-6.2 9.2-.8 1.2-.7 1.6.7 2.1 10.4 3.4 20.8 6.7 31.1 10.1.8.4 1.7 0 2.1-.7 2.6-3.9 5.2-7.8 7.9-11.6.8-1.2.8-1.2-.5-1.6-11-3.6-22-7.1-33-10.7-.6-.2-1.1-.5-1.4-1-2.3-3.8-4.7-7.4-7.1-11-1.6-2.4-1-4.1 1.7-4.9 10.3-3.3 20.5-6.7 30.8-10 2.3-.7 3.1-.5 4.4 1.6 2.5 3.7 5 7.4 7.5 11.1.3.4.7.8 1.2.9 11.2 3.6 22.4 7.3 33.6 10.9.6.2.9 0 1.3-.5 2.3-3.4 4.6-6.8 6.9-10.3.7-1.1.6-1.6-.7-2-10.5-3.4-21-6.8-31.5-10.2-.7-.3-1.5 0-1.8.7-1.8 2.7-3.6 5.4-5.5 8.1-.2.3-.4.6-.6.8-.3.3-.7.4-1 .1-.4-.2-.6-.7-.4-1.1.1-.2.2-.5.4-.7 1.9-2.8 3.7-5.5 5.6-8.3 1.2-1.7 2-2 4-1.4 10.5 3.4 20.9 6.8 31.4 10.2 2.3.7 2.9 2.6 1.6 4.6-2.3 3.5-4.6 6.9-7 10.3-.4.4-.4 1.1 0 1.6 2.7 3.9 5.3 7.8 7.9 11.7 1.5 2.3.9 3.9-1.7 4.8-2 .7-4 1.4-6.1 2-.6.1-.9.6-.9 1.1v12.4c.2 2.4-1.4 4.5-3.7 4.9-10.3 3.1-20.5 6.2-30.8 9.3-1.5.5-3.2.5-4.7 0-10.3-3.1-20.5-6.2-30.8-9.3-2.3-.5-3.9-2.6-3.7-5 0-3 0-5.9 0-8.9 0-.7-.1-1.6.9-1.6.9 0 .9.8.9 1.5v9.1c-.1 1.4.9 2.8 2.3 3 10.5 3.1 21 6.3 31.4 9.4.8.3 1.7.3 2.5 0 10.6-3.2 21.1-6.3 31.7-9.5 1.4-.3 2.3-1.6 2.2-3 .1-1.6.1-3.6.1-5.5" fill="#738baa"/><path d="m19.2 26.1c5.6-1.8 11-3.6 16.3-5.3 3.3-1.1 6.7-2.2 10-3.3.5-.2 1-.2 1.4-.1 8.7 2.8 17.3 5.7 26 8.5.2.1.3.2.4.3-2 .7-3.9 1.3-5.7 1.9-6.6 2.2-13.3 4.3-19.9 6.5-.9.3-1.8.3-2.7 0-8.2-2.7-16.5-5.4-24.7-8-.3-.1-.5-.2-1.1-.5" fill="#2c549b"/></g></g></svg>